<svg xmlns="http://www.w3.org/2000/svg" width="57.523" height="57.522" viewBox="0 0 57.523 57.522">
  <g id="Group_24" data-name="Group 24" transform="translate(-1640.915 -4125.564)">
    <path id="Path_209" data-name="Path 209" d="M1669.677,4161.748a7.423,7.423,0,1,0-7.423-7.423A7.431,7.431,0,0,0,1669.677,4161.748Zm0-12.989a5.567,5.567,0,1,1-5.567,5.566A5.571,5.571,0,0,1,1669.677,4148.759Z" fill="#fff"/>
    <path id="Path_210" data-name="Path 210" d="M1669.677,4158.036a3.711,3.711,0,1,0-3.712-3.711A3.715,3.715,0,0,0,1669.677,4158.036Zm0-5.566a1.855,1.855,0,1,1-1.856,1.855A1.857,1.857,0,0,1,1669.677,4152.47Z" fill="#fff"/>
    <path id="Path_211" data-name="Path 211" d="M1663.581,4165.286l1.622-.776c.145.064.29.126.437.182l.6,1.694h6.88l.6-1.694q.219-.086.437-.182l1.622.776,4.865-4.865-.775-1.622c.064-.145.125-.29.181-.437l1.694-.6v-6.88l-1.7-.6c-.057-.146-.117-.292-.181-.437l.775-1.622-4.865-4.865-1.622.775q-.216-.1-.437-.182l-.6-1.693h-6.88l-.6,1.694c-.146.058-.291.118-.437.182l-1.622-.775-4.865,4.865.775,1.622c-.064.144-.125.29-.181.437l-1.694.6v6.88l1.7.6c.057.146.117.291.181.437l-.775,1.622Zm-4.11-8.834V4152.2l1.291-.456.146-.424a9.07,9.07,0,0,1,.444-1.065l.2-.4-.592-1.238,3.008-3.008,1.238.592.4-.2a9.273,9.273,0,0,1,1.065-.444l.424-.146.455-1.289h4.254l.455,1.291.425.146a9.094,9.094,0,0,1,1.065.443l.4.2,1.238-.592,3.008,3.008-.592,1.238.2.4a9.319,9.319,0,0,1,.444,1.064l.145.425,1.29.455v4.254l-1.291.455-.146.425a8.987,8.987,0,0,1-.444,1.064l-.2.4.592,1.238-3.008,3.007-1.238-.591-.4.2a9.248,9.248,0,0,1-1.064.444l-.425.145-.455,1.29h-4.254l-.455-1.292-.425-.145a8.94,8.94,0,0,1-1.064-.444l-.4-.2-1.238.592-3.008-3.008.592-1.238-.2-.4a9.26,9.26,0,0,1-.444-1.065l-.145-.425Z" fill="#fff"/>
    <path id="Path_212" data-name="Path 212" d="M1652.977,4168.242H1643.7a2.787,2.787,0,0,0-2.784,2.783v9.278a2.786,2.786,0,0,0,2.784,2.783h9.278a2.786,2.786,0,0,0,2.783-2.783v-9.278A2.787,2.787,0,0,0,1652.977,4168.242Zm.927,12.061a.929.929,0,0,1-.927.928H1643.7a.93.93,0,0,1-.928-.928v-9.278a.929.929,0,0,1,.928-.927h9.278a.928.928,0,0,1,.927.927Z" fill="#fff"/>
    <path id="Path_213" data-name="Path 213" d="M1695.654,4146.9h-9.278a2.787,2.787,0,0,0-2.783,2.783v9.278a2.787,2.787,0,0,0,2.783,2.784h9.278a2.787,2.787,0,0,0,2.784-2.784v-9.278A2.787,2.787,0,0,0,1695.654,4146.9Zm.928,12.061a.93.93,0,0,1-.928.928h-9.278a.929.929,0,0,1-.927-.928v-9.278a.928.928,0,0,1,.927-.927h9.278a.929.929,0,0,1,.928.927Z" fill="#fff"/>
    <path id="Path_214" data-name="Path 214" d="M1649.265,4140.409h9.278a2.787,2.787,0,0,0,2.784-2.784v-9.277a2.787,2.787,0,0,0-2.784-2.784h-9.278a2.787,2.787,0,0,0-2.783,2.784v9.277A2.787,2.787,0,0,0,1649.265,4140.409Zm-.927-12.061a.929.929,0,0,1,.927-.928h9.278a.929.929,0,0,1,.928.928v9.277a.929.929,0,0,1-.928.928h-9.278a.929.929,0,0,1-.927-.928Z" fill="#fff"/>
    <path id="Path_215" data-name="Path 215" d="M1646.482,4177.136l-1.2-1.2-1.312,1.312,2.511,2.511,6.223-6.222-1.312-1.312Z" fill="#fff"/>
    <path id="Path_216" data-name="Path 216" d="M1658.271,4130.859l-1.312-1.312-4.91,4.911-1.2-1.2-1.312,1.312,2.512,2.512Z" fill="#fff"/>
    <path id="Path_217" data-name="Path 217" d="M1689.16,4155.8l-1.2-1.2-1.312,1.312,2.512,2.512,6.222-6.223-1.311-1.312Z" fill="#fff"/>
    <path id="Path_218" data-name="Path 218" d="M1683.368,4166.414l.45,1.8,5.273-1.318a23.11,23.11,0,0,1-29.137,8.494l-.778,1.684a24.962,24.962,0,0,0,31.252-8.836l.595,4.758,1.84-.23-1.057-8.462Z" fill="#fff"/>
    <path id="Path_219" data-name="Path 219" d="M1651.1,4158.252l-1.8-.432-1.131,4.738a21.915,21.915,0,0,1-1.678-8.233,23,23,0,0,1,2.165-9.8l-1.682-.785a24.849,24.849,0,0,0-2.338,10.584,23.753,23.753,0,0,0,1.8,8.888l-4.131-2.278-.9,1.625,7.662,4.224Z" fill="#fff"/>
    <path id="Path_220" data-name="Path 220" d="M1671.119,4133.142l-3.017-2.011h1.575a23.14,23.14,0,0,1,20.581,12.489l1.645-.858a24.987,24.987,0,0,0-22.226-13.487H1668.1l3.017-2.011-1.029-1.544-6.725,4.483,6.724,4.483Z" fill="#fff"/>
  </g>
</svg>
