<svg xmlns="http://www.w3.org/2000/svg" width="55.666" height="46.389" viewBox="0 0 55.666 46.389">
  <g id="Group_55" data-name="Group 55" transform="translate(-1640.905 -3805.9)">
    <path id="Path_244" data-name="Path 244" d="M1643.957,3852.289h49.562a3.052,3.052,0,0,0,3.052-3.052h0v-40.284a3.052,3.052,0,0,0-3.052-3.053h-49.562a3.052,3.052,0,0,0-3.052,3.053h0v40.284a3.052,3.052,0,0,0,3.052,3.052Zm-1.2-43.336a1.2,1.2,0,0,1,1.2-1.2h49.562a1.2,1.2,0,0,1,1.2,1.2h0v4.369H1642.76Zm0,6.225h51.956v34.059a1.2,1.2,0,0,1-1.2,1.2h-49.562a1.2,1.2,0,0,1-1.2-1.2h0Z" fill="#fff"/>
    <path id="Path_245" data-name="Path 245" d="M1644.616,3809.611h18.555v1.856h-18.555Z" fill="#fff"/>
    <path id="Path_246" data-name="Path 246" d="M1689.149,3809.611h1.856v1.856h-1.856Z" fill="#fff"/>
    <path id="Path_247" data-name="Path 247" d="M1682.655,3809.611h1.855v1.856h-1.855Z" fill="#fff"/>
    <path id="Path_248" data-name="Path 248" d="M1655.749,3836.173h1.234a1.5,1.5,0,0,1,1.067,2.57l-.872.873a.908.908,0,0,0,0,1.308l3.442,3.442a.908.908,0,0,0,1.308,0l.872-.863a1.456,1.456,0,0,1,1.642-.334,1.475,1.475,0,0,1,.928,1.392v1.234a.927.927,0,0,0,.928.927h4.871a.927.927,0,0,0,.927-.927v-1.234a1.5,1.5,0,0,1,2.57-1.058l.873.863a.929.929,0,0,0,1.308,0l3.442-3.442a.908.908,0,0,0,0-1.308l-.863-.873a1.5,1.5,0,0,1,1.058-2.57h1.243a.928.928,0,0,0,.928-.927v-4.871a.928.928,0,0,0-.928-.928h-1.234a1.512,1.512,0,0,1-1.067-2.579l.872-.872a.908.908,0,0,0,0-1.308l-3.442-3.442a.906.906,0,0,0-1.308,0l-.872.862a1.5,1.5,0,0,1-2.57-1.057v-1.234a.928.928,0,0,0-.928-.928h-4.871a.928.928,0,0,0-.928.928v1.234a1.474,1.474,0,0,1-.927,1.391,1.456,1.456,0,0,1-1.643-.334l-.872-.862a.927.927,0,0,0-1.308,0l-3.442,3.442a.908.908,0,0,0,0,1.308l.863.872a1.456,1.456,0,0,1,.334,1.642,1.475,1.475,0,0,1-1.392.928h-1.243a.928.928,0,0,0-.928.928v4.87a.928.928,0,0,0,.919.937Zm.928-4.87h.306a3.368,3.368,0,0,0,2.375-5.743l-.213-.177,2.134-2.133.213.213a3.368,3.368,0,0,0,5.743-2.375v-.343h3.015v.306a3.359,3.359,0,0,0,5.734,2.375l.213-.214,2.134,2.134-.213.214a3.367,3.367,0,0,0,2.375,5.743h.306v3.015h-.306a3.359,3.359,0,0,0-2.375,5.734l.213.213-2.171,2.134-.213-.214a3.359,3.359,0,0,0-5.734,2.376v.306h-2.978v-.306a3.368,3.368,0,0,0-5.743-2.376l-.213.214-2.134-2.171.213-.214a3.358,3.358,0,0,0-2.375-5.733h-.306Z" fill="#fff"/>
    <path id="Path_249" data-name="Path 249" d="M1668.738,3840.228a7.422,7.422,0,1,0-7.422-7.422A7.422,7.422,0,0,0,1668.738,3840.228Zm0-12.989a5.567,5.567,0,1,1-5.567,5.567A5.567,5.567,0,0,1,1668.738,3827.239Z" fill="#fff"/>
  </g>
</svg>
