<svg xmlns="http://www.w3.org/2000/svg" width="55.666" height="55.667" viewBox="0 0 55.666 55.667">
  <g id="database_server" data-name="database server" transform="translate(-502.075 -3731.318)">
    <path id="Path_227" data-name="Path 227" d="M540.874,3748.027a2.772,2.772,0,0,0-2.616-1.865h-.928v-1.855h.928a2.791,2.791,0,0,0,2.783-2.783V3734.1a2.791,2.791,0,0,0-2.783-2.783h-33.4a2.791,2.791,0,0,0-2.783,2.783v7.423a2.791,2.791,0,0,0,2.783,2.783h.928v1.855h-.928a2.791,2.791,0,0,0-2.783,2.784v7.422a2.791,2.791,0,0,0,2.783,2.783h.928v1.856h-.928a2.791,2.791,0,0,0-2.783,2.783v7.422a2.792,2.792,0,0,0,2.783,2.784h17.628v7.422c0,3.655,8.869,5.567,17.627,5.567s17.628-1.912,17.628-5.567v-27.833C557.741,3750.031,549.382,3748.139,540.874,3748.027Zm-36.016-5.576a.928.928,0,0,1-.928-.927V3734.1a.928.928,0,0,1,.928-.927h33.4a.928.928,0,0,1,.928.927v7.423a.928.928,0,0,1-.928.927Zm30.617,1.856v1.855h-3.712v-1.855Zm-5.567,0v1.855h-16.7v-1.855Zm-18.556,0v1.855h-3.711v-1.855Zm11.134,27.833H504.858a.928.928,0,0,1-.928-.928v-7.422a.929.929,0,0,1,.928-.928h17.628Zm-14.845-11.133v-1.856h3.711v1.856Zm14.845,0h-9.278v-1.856h9.278Zm0-7.422v3.711H504.858a.929.929,0,0,1-.928-.928v-7.422a.928.928,0,0,1,.928-.928h33.4a.638.638,0,0,1,.13.028C530.223,3748.278,522.486,3750.17,522.486,3753.585Zm33.4,27.833c0,1.262-5.567,3.711-15.773,3.711s-15.772-2.449-15.772-3.711v-6.662c3.053,1.94,9.426,2.951,15.772,2.951s12.72-1.011,15.773-2.951Zm0-9.278c0,1.262-5.567,3.711-15.773,3.711s-15.772-2.449-15.772-3.711v-6.661c3.053,1.939,9.426,2.95,15.772,2.95s12.72-1.011,15.773-2.95Zm0-9.278c0,1.262-5.567,3.711-15.773,3.711s-15.772-2.449-15.772-3.711V3756.2c3.053,1.939,9.426,2.95,15.772,2.95s12.72-1.011,15.773-2.95Zm-15.773-5.566c-10.2,0-15.772-2.45-15.772-3.711s5.567-3.711,15.772-3.711,15.773,2.449,15.773,3.711S550.319,3757.3,540.113,3757.3Z" fill="#fff"/>
    <path id="Path_228" data-name="Path 228" d="M539.186,3761.935h1.855v1.855h-1.855Z" fill="#fff"/>
    <path id="Path_229" data-name="Path 229" d="M539.186,3772.14h1.855V3774h-1.855Z" fill="#fff"/>
    <path id="Path_230" data-name="Path 230" d="M539.186,3780.49h1.855v1.856h-1.855Z" fill="#fff"/>
    <path id="Path_231" data-name="Path 231" d="M510.425,3749.874h-3.711a.927.927,0,0,0-.928.927v3.711a.927.927,0,0,0,.928.928h3.711a.927.927,0,0,0,.927-.928V3750.8A.927.927,0,0,0,510.425,3749.874Zm-.928,3.711h-1.856v-1.856H509.5Z" fill="#fff"/>
    <path id="Path_232" data-name="Path 232" d="M517.847,3749.874h-3.711a.927.927,0,0,0-.928.927v3.711a.927.927,0,0,0,.928.928h3.711a.928.928,0,0,0,.928-.928V3750.8A.928.928,0,0,0,517.847,3749.874Zm-.928,3.711h-1.855v-1.856h1.855Z" fill="#fff"/>
    <path id="Path_233" data-name="Path 233" d="M510.425,3735.029h-3.711a.928.928,0,0,0-.928.928v3.711a.928.928,0,0,0,.928.928h3.711a.928.928,0,0,0,.927-.928v-3.711A.928.928,0,0,0,510.425,3735.029Zm-.928,3.711h-1.856v-1.855H509.5Z" fill="#fff"/>
    <path id="Path_234" data-name="Path 234" d="M517.847,3735.029h-3.711a.928.928,0,0,0-.928.928v3.711a.928.928,0,0,0,.928.928h3.711a.929.929,0,0,0,.928-.928v-3.711A.929.929,0,0,0,517.847,3735.029Zm-.928,3.711h-1.855v-1.855h1.855Z" fill="#fff"/>
    <path id="Path_235" data-name="Path 235" d="M520.63,3735.029h12.989v1.856H520.63Z" fill="#fff"/>
    <path id="Path_236" data-name="Path 236" d="M535.475,3735.029h1.855v1.856h-1.855Z" fill="#fff"/>
    <path id="Path_237" data-name="Path 237" d="M520.63,3738.74h12.989v1.856H520.63Z" fill="#fff"/>
    <path id="Path_238" data-name="Path 238" d="M535.475,3738.74h1.855v1.856h-1.855Z" fill="#fff"/>
    <path id="Path_239" data-name="Path 239" d="M510.425,3764.718h-3.711a.927.927,0,0,0-.928.928v3.711a.928.928,0,0,0,.928.928h3.711a.928.928,0,0,0,.927-.928v-3.711A.927.927,0,0,0,510.425,3764.718Zm-.928,3.711h-1.856v-1.856H509.5Z" fill="#fff"/>
    <path id="Path_240" data-name="Path 240" d="M517.847,3764.718h-3.711a.927.927,0,0,0-.928.928v3.711a.928.928,0,0,0,.928.928h3.711a.929.929,0,0,0,.928-.928v-3.711A.928.928,0,0,0,517.847,3764.718Zm-.928,3.711h-1.855v-1.856h1.855Z" fill="#fff"/>
  </g>
</svg>
