<svg xmlns="http://www.w3.org/2000/svg" width="55.905" height="56.714" viewBox="0 0 55.905 56.714">
  <g id="Group_21" data-name="Group 21" transform="translate(-499.353 -4221.39)">
    <path id="Path_204" data-name="Path 204" d="M549.869,4229.1a2.133,2.133,0,1,0-2.132-2.132A2.131,2.131,0,0,0,549.869,4229.1Zm0-2.744a.621.621,0,1,1,0,1.241.621.621,0,1,1,0-1.241Z" fill="#fff"/>
    <path id="Path_205" data-name="Path 205" d="M552.235,4221.39H508.4a3.029,3.029,0,0,0-3.023,3.023v4.615h-3.005a3.03,3.03,0,0,0-3.023,3.023v37.9a3.029,3.029,0,0,0,3.023,3.023h20.09v4.373a.759.759,0,0,0,.755.755h14.2a.76.76,0,0,0,.756-.755v-4.373h8.034a3.029,3.029,0,0,0,3.022-3.023v-4.615h3.005a3.029,3.029,0,0,0,3.023-3.023v-37.9a3.029,3.029,0,0,0-3.023-3.023Zm-45.343,3.023a1.516,1.516,0,0,1,1.512-1.512h43.831a1.515,1.515,0,0,1,1.512,1.512v6.63H525.066l-3.374-3.5a1.386,1.386,0,0,0-.99-.422h-7.431a1.381,1.381,0,0,0-1.376,1.376v2.546h-5Zm-4.516,47.061a1.515,1.515,0,0,1-1.511-1.512v-37.911a1.514,1.514,0,0,1,1.511-1.512h3.005v31.785a3.029,3.029,0,0,0,3.023,3.023h16.41a3.487,3.487,0,0,1,.378,1.889h-1.17a1.557,1.557,0,0,0-1.556,1.557v2.681Zm27.2-15.825a.856.856,0,0,1,.747-.441.849.849,0,0,1,.422,1.583.944.944,0,0,1-.98-.045.249.249,0,0,1-.108-.108A.95.95,0,0,1,529.573,4255.649Zm-.009-1.808a2.335,2.335,0,0,0-1.305,1.079,2.468,2.468,0,0,0,.126,2.528,1.889,1.889,0,0,0,.639.612,2.668,2.668,0,0,0,1.3.36,2.351,2.351,0,0,0,.746-4.579v-3.887l6.685,12.064a.1.1,0,0,1-.045.036,5.085,5.085,0,0,0-3.788,5.182h-7.206a5.188,5.188,0,0,0-3.833-5.254l6.676-12.028Zm7.1,22.752H523.977l.045-7.854h12.6a.043.043,0,0,1,.045.045Zm11.057-6.64a1.515,1.515,0,0,1-1.511,1.512h-8.034v-2.681a1.557,1.557,0,0,0-1.557-1.557h-1.169a3.573,3.573,0,0,1,.378-1.889h11.893Zm4.516-6.117H537.292a3.253,3.253,0,0,1,.792-.324,1.6,1.6,0,0,0,1.061-.909,1.535,1.535,0,0,0-.072-1.358l-7.737-13.936a1.145,1.145,0,0,0-1.007-.6,1.184,1.184,0,0,0-1.026.594l-7.746,13.945a1.567,1.567,0,0,0,.99,2.267,3.417,3.417,0,0,1,.791.324H508.4a1.515,1.515,0,0,1-1.512-1.512v-29.769h5.129a1.383,1.383,0,0,0,1.376-1.377v-2.546h7.242l3.374,3.5a1.384,1.384,0,0,0,.99.423h28.744v29.76a1.517,1.517,0,0,1-1.512,1.521Z" fill="#fff"/>
    <path id="Path_206" data-name="Path 206" d="M544.723,4229.1a2.133,2.133,0,1,0-2.132-2.132A2.131,2.131,0,0,0,544.723,4229.1Zm0-2.744a.621.621,0,1,1,0,1.241.621.621,0,1,1,0-1.241Z" fill="#fff"/>
    <path id="Path_207" data-name="Path 207" d="M539.568,4229.1a2.133,2.133,0,1,0-2.132-2.132A2.131,2.131,0,0,0,539.568,4229.1Zm0-2.744a.621.621,0,1,1,0,1.241.621.621,0,1,1,0-1.241Z" fill="#fff"/>
    <path id="Path_208" data-name="Path 208" d="M544.885,4239.14a3,3,0,0,0-.828,1.592H533.486v-1.187a1.466,1.466,0,0,0-1.466-1.467h-3.41a1.467,1.467,0,0,0-1.466,1.467v1.187H516.582a3,3,0,0,0-.828-1.6,3.056,3.056,0,0,0-4.21.009,2.974,2.974,0,0,0,0,4.21,2.9,2.9,0,0,0,2.1.882,3.236,3.236,0,0,0,1.475-.36,2.652,2.652,0,0,0,1.188-1.223,3.793,3.793,0,0,0,.162-.4h7.332a15.021,15.021,0,0,0-8.034,10H514.6a1.467,1.467,0,0,0-1.467,1.467v3.409a1.467,1.467,0,0,0,1.467,1.467h3.409a1.467,1.467,0,0,0,1.467-1.467v-3.409a1.467,1.467,0,0,0-1.467-1.467h-.683a13.5,13.5,0,0,1,9.842-9.626v.324a1.467,1.467,0,0,0,1.466,1.466h3.41a1.466,1.466,0,0,0,1.466-1.466v-.324a13.527,13.527,0,0,1,9.843,9.626h-.621a1.467,1.467,0,0,0-1.467,1.467v3.409a1.467,1.467,0,0,0,1.467,1.467h3.41a1.467,1.467,0,0,0,1.466-1.467v-3.409a1.467,1.467,0,0,0-1.466-1.467h-1.233a15.046,15.046,0,0,0-8.034-10h7.35a2.977,2.977,0,0,0,2.8,1.988,3.243,3.243,0,0,0,1.476-.36,2.65,2.65,0,0,0,1.187-1.223,3.037,3.037,0,0,0-.548-3.518,3.123,3.123,0,0,0-4.256.009Zm-29.95,2.87a1.153,1.153,0,0,1-.5.513,1.5,1.5,0,0,1-1.827-.243,1.427,1.427,0,0,1-.432-1.035,1.492,1.492,0,0,1,.432-1.043,1.478,1.478,0,0,1,2.079-.009A1.568,1.568,0,0,1,514.935,4242.01Zm3.059,15.069-3.364.045-.045-3.364h3.364Zm28.124,0-3.365.045-.045-3.364h3.365Zm-17.454-14.124-.018-1.134a.78.78,0,0,0,.009-.252v-.009c0-.027.018-.045.018-.072a.445.445,0,0,0-.027-.117l-.027-1.772h3.365l.027,1.772a.632.632,0,0,0-.027.126.21.21,0,0,0,.018.072v.009a.77.77,0,0,0,.018.324l.018,1.017Zm19.622-.945a1.156,1.156,0,0,1-.5.513,1.5,1.5,0,0,1-1.826-.243,1.427,1.427,0,0,1-.432-1.035,1.492,1.492,0,0,1,.432-1.043,1.476,1.476,0,0,1,2.078-.009A1.567,1.567,0,0,1,548.286,4242.01Z" fill="#fff"/>
  </g>
</svg>
