<svg xmlns="http://www.w3.org/2000/svg" width="48.937" height="35.009" viewBox="0 0 48.937 35.009">
  <g id="Group_14" data-name="Group 14" transform="translate(-378.864 -5867.19)">
    <path id="Path_199" data-name="Path 199" d="M427.749,5868.868a1.381,1.381,0,0,0-.273-.754,1.724,1.724,0,0,0-.123-.227c-.019-.023-.046-.032-.066-.053a1.871,1.871,0,0,0-.329-.264,1.842,1.842,0,0,0-.272-.183,1.756,1.756,0,0,0-.35-.1,1.834,1.834,0,0,0-.38-.077c-.032,0-.058-.018-.089-.018H380.8c-.032,0-.058.017-.089.018a1.852,1.852,0,0,0-.378.076,1.833,1.833,0,0,0-.353.1,1.959,1.959,0,0,0-.269.18,1.91,1.91,0,0,0-.332.267c-.02.021-.047.03-.066.053a1.706,1.706,0,0,0-.123.228,1.817,1.817,0,0,0-.193.357,148.271,148.271,0,0,1-.132.652v31.141a1.933,1.933,0,0,0,1.935,1.934h45.068a1.933,1.933,0,0,0,1.934-1.934v-31.141A1.874,1.874,0,0,0,427.749,5868.868Zm-7.228,2.191-17.188,14.312-17.189-14.312Zm-37.788,27.272v-25.079l19.363,16.124a1.936,1.936,0,0,0,2.475,0l19.361-16.124v25.079Z" fill="#f3eee8"/>
  </g>
</svg>
