<svg xmlns="http://www.w3.org/2000/svg" width="117.878" height="133.814" viewBox="0 0 117.878 133.814">
  <g id="Group_19" data-name="Group 19" transform="translate(-2428.1 -4916.711)">
    <path id="Path_202" data-name="Path 202" d="M2428.127,4983.518c0-9.628.051-19.257-.027-28.886a7.958,7.958,0,0,1,4.433-7.627q25.178-14.406,50.239-29.011a7.785,7.785,0,0,1,8.544-.012q25.287,14.684,50.645,29.247a7.394,7.394,0,0,1,4.017,6.919q-.026,29.436,0,58.871a7.275,7.275,0,0,1-3.894,6.824q-25.614,14.745-51.19,29.558a7.109,7.109,0,0,1-7.71-.023c-4.05-2.39-8.148-4.7-12.212-7.068-3.52-2.05-4.674-5.934-2.787-9.269s5.829-4.345,9.385-2.367q4.248,2.363,8.414,4.867a1.821,1.821,0,0,0,2.131.006q21.636-12.543,43.32-25a2.067,2.067,0,0,0,1.148-2.11q-.044-24.882.006-49.765a2.063,2.063,0,0,0-1.2-2.077q-21.615-12.423-43.182-24.927a1.941,1.941,0,0,0-2.261-.01q-21.638,12.538-43.322,24.994a1.953,1.953,0,0,0-1.1,1.976q.047,25.118.005,50.236a1.942,1.942,0,0,0,1,1.9c2.876,1.81,5.687,3.723,8.561,5.535a2.908,2.908,0,0,0,1.86.511,52.605,52.605,0,0,0,5.445-1.382c1.411-.428,1.942-1.4,1.937-2.967-.059-16.065-.027-32.131-.048-48.2a7.481,7.481,0,0,1,1.484-4.993,6.694,6.694,0,0,1,7.216-2.15,6.413,6.413,0,0,1,4.607,5.914c.092,3.452.045,6.907.046,10.36q0,19.075,0,38.149c0,9.178-3.728,14.482-12.534,17.139a68.823,68.823,0,0,1-10,1.723,7.286,7.286,0,0,1-5.173-1.418c-4.659-3.1-9.32-6.192-14.047-9.182a7.55,7.55,0,0,1-3.755-6.929C2428.149,5003.09,2428.127,4993.3,2428.127,4983.518Z" fill="#9bc355"/>
    <path id="Path_203" data-name="Path 203" d="M2503.785,5017.1c-5.612-.108-11.076-.876-15.882-4.05-4.421-2.92-7.253-6.9-7.491-12.37a6.645,6.645,0,0,1,13.234-1.176c.23,1.691,1.417,2.376,2.727,2.921a19.543,19.543,0,0,0,10.18,1.069,20.5,20.5,0,0,0,5.534-1.544c1.927-.846,2.2-2.1.876-3.75a7.183,7.183,0,0,0-3.056-2.3c-3.9-1.323-7.879-2.412-11.837-3.559a38.606,38.606,0,0,1-11.209-5.107c-8.426-5.763-8.822-18.869-.546-25.309a24.366,24.366,0,0,1,13.021-4.895c5.613-.527,11.2-.353,16.524,1.806,6,2.433,10.167,6.523,11.271,13.162a6.8,6.8,0,0,1-4.624,7.911,6.613,6.613,0,0,1-7.94-3.4,4.892,4.892,0,0,1-.564-1.775,3.435,3.435,0,0,0-2.444-3.149,20.922,20.922,0,0,0-15.737.108,2.868,2.868,0,0,0-2.094,2.495,2.6,2.6,0,0,0,1.911,2.747c3.661,1.347,7.377,2.545,11.067,3.815a96.973,96.973,0,0,1,10.011,3.551,17.581,17.581,0,0,1,10.4,14.675c.611,5.519-1.924,9.846-6.17,13.165C2515.911,5016.08,2509.943,5016.968,2503.785,5017.1Z" fill="#9bc355"/>
  </g>
</svg>
