<svg xmlns="http://www.w3.org/2000/svg" width="42.763" height="55.492" viewBox="0 0 42.763 55.492">
  <path id="Path_201" data-name="Path 201" d="M418.059,5783.827l-5.592-3.414a6.55,6.55,0,0,0-9.005,2.177l-3.414,5.592a6.55,6.55,0,0,0,2.177,9h0a6.551,6.551,0,0,1,2.177,9l-3.151,5.162a6.551,6.551,0,0,1-9.006,2.177h0a6.552,6.552,0,0,0-9.006,2.177l-3.414,5.592a6.551,6.551,0,0,0,2.177,9.005l5.592,3.415.43.262a6.55,6.55,0,0,0,9.005-2.177l23.637-38.71a6.551,6.551,0,0,0-2.177-9.005Z" transform="translate(-378.864 -5779.452)" fill="#f3eee8"/>
</svg>
