<svg xmlns="http://www.w3.org/2000/svg" width="55.667" height="48.244" viewBox="0 0 55.667 48.244">
  <g id="Group_39" data-name="Group 39" transform="translate(-1640.423 -3968.238)">
    <g id="Group_28" data-name="Group 28">
      <g id="Group_27" data-name="Group 27">
        <path id="Path_221" data-name="Path 221" d="M1693.306,3992.36h-.927v-19.483a4.645,4.645,0,0,0-4.639-4.639h-38.967a4.645,4.645,0,0,0-4.639,4.639v13.916h-.927a2.783,2.783,0,0,0-2.784,2.784V4013.7a2.783,2.783,0,0,0,2.784,2.783h35.255a.928.928,0,0,0,.928-.928,4.644,4.644,0,0,0-4.639-4.638h-2.783v-5.567H1683.1v8.35a2.783,2.783,0,0,0,2.783,2.783h7.422a2.783,2.783,0,0,0,2.784-2.783v-18.556A2.783,2.783,0,0,0,1693.306,3992.36Zm-32.472,21.339a.928.928,0,0,1-.928.928h-16.7a.928.928,0,0,1-.928-.928v-.928h18.555Zm0-2.783h-18.555v-21.339a.927.927,0,0,1,.928-.928h16.7a.927.927,0,0,1,.928.928Zm13.917,1.855a2.788,2.788,0,0,1,2.625,1.856h-14.857a2.744,2.744,0,0,0,.171-.928v-.928Zm-12.061-1.855v-5.567h1.855v5.567Zm3.711,0v-5.567h3.711v5.567Zm16.7-7.423H1662.69v-5.566H1683.1Zm0-8.35v.928H1662.69v-6.494a2.748,2.748,0,0,0-.317-1.263c.013-.013.032-.017.045-.031l9.185-9.185a.927.927,0,0,0-1.312-1.311l-9.185,9.185c-.022.023-.031.052-.051.077a2.764,2.764,0,0,0-1.149-.256H1645.99v-13.916a2.784,2.784,0,0,1,2.783-2.784h38.967a2.784,2.784,0,0,1,2.783,2.784v19.483h-4.639A2.783,2.783,0,0,0,1683.1,3995.143Zm11.133,18.556a.928.928,0,0,1-.928.928h-7.422a.929.929,0,0,1-.928-.928v-.928h9.278Zm0-2.783h-9.278v-15.773a.928.928,0,0,1,.928-.927h7.422a.927.927,0,0,1,.928.927Z" fill="#fff"/>
      </g>
    </g>
    <g id="Group_30" data-name="Group 30">
      <g id="Group_29" data-name="Group 29">
        <path id="Path_222" data-name="Path 222" d="M1651.509,3998.086a.929.929,0,0,0-1.312,0l-3.935,3.936a.928.928,0,1,0,1.289,1.334l.023-.022,3.935-3.936C1651.675,3999.111,1651.342,3998.565,1651.509,3998.086Z" fill="#fff"/>
      </g>
    </g>
    <g id="Group_32" data-name="Group 32">
      <g id="Group_31" data-name="Group 31">
        <path id="Path_223" data-name="Path 223" d="M1657.053,3998.086a.928.928,0,0,0-1.289,0l-3.936,3.936a.927.927,0,0,0,1.289,1.334l.023-.022,3.936-3.936A.928.928,0,0,0,1657.053,3998.086Z" fill="#fff"/>
      </g>
    </g>
    <g id="Group_34" data-name="Group 34">
      <g id="Group_33" data-name="Group 33">
        <path id="Path_224" data-name="Path 224" d="M1677.24,3977.787a.928.928,0,0,0-1.289,0l-9.185,9.185a.928.928,0,0,0,1.289,1.335l.022-.023,9.185-9.185A.928.928,0,0,0,1677.24,3977.787Z" fill="#fff"/>
      </g>
    </g>
    <g id="Group_36" data-name="Group 36">
      <g id="Group_35" data-name="Group 35">
        <path id="Path_225" data-name="Path 225" d="M1668.275,3999.782h-.009a.933.933,0,1,0,.009,0Z" fill="#fff"/>
      </g>
    </g>
    <g id="Group_38" data-name="Group 38">
      <g id="Group_37" data-name="Group 37">
        <path id="Path_226" data-name="Path 226" d="M1670.112,3971.949H1666.4a.928.928,0,1,0,0,1.856h3.711a.928.928,0,0,0,0-1.856Z" fill="#fff"/>
      </g>
    </g>
  </g>
</svg>
