<svg xmlns="http://www.w3.org/2000/svg" width="57.284" height="57.213" viewBox="0 0 57.284 57.213">
  <g id="Group_58" data-name="Group 58" transform="translate(-501.266 -4059.25)">
    <g id="g995">
      <path id="path997" d="M546.632,4064.222h7.321" fill="none" stroke="#fff" stroke-linecap="round" stroke-linejoin="round" stroke-width="1.678"/>
    </g>
    <g id="g999">
      <path id="path1001" d="M542.474,4064.222h.892" fill="none" stroke="#fff" stroke-linecap="round" stroke-linejoin="round" stroke-width="1.678"/>
    </g>
    <g id="g1003">
      <path id="path1005" d="M542.474,4068.164h11.48" fill="none" stroke="#fff" stroke-linecap="round" stroke-linejoin="round" stroke-width="1.678"/>
    </g>
    <g id="g1009">
      <g id="g1015">
        <path id="path1017" d="M536.583,4079.428v3.434a2.567,2.567,0,0,1-2.567,2.567H531.9" fill="none" stroke="#fff" stroke-linecap="round" stroke-linejoin="round" stroke-width="1.678"/>
      </g>
      <g id="g1019">
        <path id="path1021" d="M543.537,4112.016H503.91a1.8,1.8,0,1,0,0,3.608h39.627a1.8,1.8,0,1,0,0-3.608Z" fill="none" stroke="#fff" stroke-linecap="round" stroke-linejoin="round" stroke-width="1.678"/>
      </g>
      <g id="g1023">
        <path id="path1025" d="M525.975,4112.016a5.979,5.979,0,0,1,1.543-4l.022-.025a5.119,5.119,0,0,0-1.292-7.862.44.44,0,0,0-.659.381v3.808a1.155,1.155,0,0,1-1.155,1.155h-1.421a1.156,1.156,0,0,1-1.156-1.155v-3.808a.439.439,0,0,0-.658-.381,5.12,5.12,0,0,0-1.293,7.862l.023.025a5.979,5.979,0,0,1,1.543,4" fill="none" stroke="#fff" stroke-linecap="round" stroke-linejoin="round" stroke-width="1.678"/>
      </g>
      <g id="g1027">
        <path id="path1029" d="M506.431,4108.741l.178,3.275" fill="none" stroke="#fff" stroke-linecap="round" stroke-linejoin="round" stroke-width="1.678"/>
      </g>
      <g id="g1031">
        <path id="path1033" d="M540.838,4112.016l.831-15.322a2.575,2.575,0,0,0-2.572-2.715H508.349a2.576,2.576,0,0,0-2.572,2.715l.443,8.153" fill="none" stroke="#fff" stroke-linecap="round" stroke-linejoin="round" stroke-width="1.678"/>
      </g>
      <g id="g1035">
        <path id="path1037" d="M544.67,4112.417V4108.9a14.4,14.4,0,0,0-3.173-9.028" fill="none" stroke="#fff" stroke-linecap="round" stroke-linejoin="round" stroke-width="1.678"/>
      </g>
      <g id="g1039">
        <path id="path1041" d="M505.95,4099.874a14.4,14.4,0,0,0-3.173,9.028v3.515" fill="none" stroke="#fff" stroke-linecap="round" stroke-linejoin="round" stroke-width="1.678"/>
      </g>
      <g id="g1043">
        <path id="path1045" d="M532.266,4066.971h-.094a.943.943,0,0,1-.943-.943,2.792,2.792,0,0,0-2.792-2.792H519.55a7.161,7.161,0,0,0-7.161,7.161v4.732a1.633,1.633,0,0,0,1.1,1.543l1.764.614a.947.947,0,0,0,1.26-.9l0-3.337a2.921,2.921,0,0,1,2.89-2.951h.035a4.647,4.647,0,0,1,1.44.223,8.169,8.169,0,0,0,2.536.42h.635a8.174,8.174,0,0,0,2.536-.42,4.641,4.641,0,0,1,1.439-.223h.035a2.921,2.921,0,0,1,2.891,2.951l0,3.337a.947.947,0,0,0,1.259.9l1.763-.614a1.632,1.632,0,0,0,1.1-1.542v-5.367A2.792,2.792,0,0,0,532.266,4066.971Z" fill="none" stroke="#fff" stroke-linecap="round" stroke-linejoin="round" stroke-width="1.678"/>
      </g>
      <g id="g1047">
        <path id="path1049" d="M514.565,4081.538h.016a8.665,8.665,0,0,0,2.915,6.356,9.293,9.293,0,0,0,12.53-.053,8.654,8.654,0,0,0,2.855-6.236" fill="none" stroke="#fff" stroke-linecap="round" stroke-linejoin="round" stroke-width="1.678"/>
      </g>
      <g id="g1051">
        <path id="path1053" d="M512.389,4074.762a1.865,1.865,0,0,0-1.526,1.833v3.187a1.865,1.865,0,0,0,1.865,1.865h1.837v-4.6" fill="none" stroke="#fff" stroke-linecap="round" stroke-linejoin="round" stroke-width="1.678"/>
      </g>
      <g id="g1055">
        <path id="path1057" d="M532.881,4077.048v4.6h1.837a1.866,1.866,0,0,0,1.866-1.865v-3.187a1.865,1.865,0,0,0-1.526-1.833" fill="none" stroke="#fff" stroke-linecap="round" stroke-linejoin="round" stroke-width="1.678"/>
      </g>
      <g id="g1059">
        <path id="path1061" d="M530.056,4086.746H527.95a1.455,1.455,0,1,1,0-2.909h2.106a1.455,1.455,0,1,1,0,2.909Z" fill="none" stroke="#fff" stroke-linecap="round" stroke-linejoin="round" stroke-width="1.678"/>
      </g>
      <g id="g1063">
        <path id="path1065" d="M529.674,4093.979a2.442,2.442,0,0,1-1.28-2.146v-2.813" fill="none" stroke="#fff" stroke-linecap="round" stroke-linejoin="round" stroke-width="1.678"/>
      </g>
      <g id="g1067">
        <path id="path1069" d="M519.053,4089.011v2.822a2.442,2.442,0,0,1-1.283,2.146" fill="none" stroke="#fff" stroke-linecap="round" stroke-linejoin="round" stroke-width="1.678"/>
      </g>
      <g id="g1071">
        <path id="path1073" d="M557.711,4064.153v-1.624a2.441,2.441,0,0,0-2.441-2.44H541.157a2.44,2.44,0,0,0-2.44,2.44v7.059a2.44,2.44,0,0,0,2.44,2.44,1.425,1.425,0,0,1,1.425,1.425v4.365a.547.547,0,0,0,1.015.281l3.226-5.379a1.425,1.425,0,0,1,1.222-.692h7.225a2.441,2.441,0,0,0,2.441-2.44v-1.512" fill="none" stroke="#fff" stroke-linecap="round" stroke-linejoin="round" stroke-width="1.678"/>
      </g>
    </g>
  </g>
</svg>
