<svg xmlns="http://www.w3.org/2000/svg" width="49.817" height="49.814" viewBox="0 0 49.817 49.814">
  <g id="Group_16" data-name="Group 16" transform="translate(-378.864 -5937.285)">
    <path id="Path_200" data-name="Path 200" d="M421.909,5979.225a24.822,24.822,0,0,0-.094-34.177c-.013-.013-.026-.024-.038-.037l-.01-.009a24.733,24.733,0,0,0-13.024-7.221,25.142,25.142,0,0,0-9.941,0h0A24.75,24.75,0,0,0,385.781,5945l-.012.012c-.012.013-.025.023-.037.036l0,.007a24.815,24.815,0,0,0-.093,34.168l.037.043c.021.022.039.047.06.07a24.737,24.737,0,0,0,12.987,7.246l.011,0c.024,0,.046.012.069.016h0a25.033,25.033,0,0,0,9.942,0c.025,0,.049-.013.074-.018l.011,0a24.737,24.737,0,0,0,12.987-7.246c.023-.025.043-.052.066-.077Zm-6.636-4.928a42.594,42.594,0,0,0,1.7-10.173h7.743a20.9,20.9,0,0,1-4.9,11.611A45.041,45.041,0,0,0,415.273,5974.3Zm1.7-14.041a42.582,42.582,0,0,0-1.7-10.171,45.041,45.041,0,0,0,4.547-1.438,20.9,20.9,0,0,1,4.9,11.609Zm-2.951-13.84c-.451-1.137-.938-2.258-1.484-3.352a20.886,20.886,0,0,1,4.2,2.584C415.844,5945.941,414.938,5946.186,414.026,5946.416Zm-2.535,4.519a38.722,38.722,0,0,1,1.618,9.321H394.436a38.769,38.769,0,0,1,1.618-9.321,44.864,44.864,0,0,0,15.437,0Zm-17.972-4.519c-.911-.23-1.816-.474-2.712-.768a20.916,20.916,0,0,1,4.2-2.581C394.457,5944.158,393.97,5945.279,393.519,5946.416Zm-5.792,2.231a45.505,45.505,0,0,0,4.545,1.438,42.582,42.582,0,0,0-1.7,10.171h-7.743A20.908,20.908,0,0,1,387.727,5948.647Zm2.841,15.477a42.586,42.586,0,0,0,1.7,10.173,45.716,45.716,0,0,0-4.545,1.438,20.9,20.9,0,0,1-4.9-11.611Zm2.951,13.842c.451,1.137.938,2.258,1.484,3.35a20.848,20.848,0,0,1-4.2-2.582C391.7,5978.44,392.607,5978.2,393.519,5977.966Zm2.535-4.519a38.773,38.773,0,0,1-1.618-9.323h18.673a38.725,38.725,0,0,1-1.618,9.323A45.946,45.946,0,0,0,396.054,5973.447Zm17.972,4.519c.912.23,1.818.475,2.715.768a20.859,20.859,0,0,1-4.2,2.583C413.088,5980.224,413.575,5979.1,414.026,5977.966Zm-6.841-36.512a38.654,38.654,0,0,1,3.014,5.781,42.065,42.065,0,0,1-12.851,0,38.742,38.742,0,0,1,3.014-5.781A21.075,21.075,0,0,1,407.185,5941.454Zm-6.823,41.473a38.623,38.623,0,0,1-3.014-5.781,42.1,42.1,0,0,1,12.851,0,38.638,38.638,0,0,1-3.013,5.78A21.163,21.163,0,0,1,400.362,5982.927Z" fill="#f3eee8"/>
  </g>
</svg>
